<?xml version="1.0" encoding="utf-8"?>
<!-- Generator: Adobe Illustrator 16.0.0, SVG Export Plug-In . SVG Version: 6.00 Build 0)  -->
<!DOCTYPE svg PUBLIC "-//W3C//DTD SVG 1.1//EN" "http://www.w3.org/Graphics/SVG/1.1/DTD/svg11.dtd">
<svg version="1.1" id="Layer_1" xmlns="http://www.w3.org/2000/svg" xmlns:xlink="http://www.w3.org/1999/xlink" x="0px" y="0px"
	 width="1920px" height="200px" viewBox="0 0 1920 200" enable-background="new 0 0 1920 200" xml:space="preserve">
<path fill="#FFFFFF" stroke="#FFFFFF" stroke-miterlimit="10" d="M1920,124.24V450H0V163c0,0,192.6-99.59,849-29
	c76.62,8.24,152.689,14.971,227.62,19.98C1307.67,174.65,1652.83,188.91,1920,124.24z"/>
<g>
	<path id="Shape_7_copy" fill="#F2AF90" d="M0,163c0,0,192.6-99.589,849-29c400.98,43.121,787.12,44.994,1072-24v-9
		c0,0-348.26,99.382-1064,15C306.037,51.044,113.177,91.3,0,132V163z"/>
	<path id="Shape_8_copy" fill="#EB8759" d="M1,132c0,0,163.133-86.026,829-6c69.386,8.339,675.12,99.05,1091-2v-23
		c0,0-355.65,102.061-1090,12C664.754,92.612,223.551,47.2,1,132z"/>
</g>
</svg>
