<svg xmlns="http://www.w3.org/2000/svg" width="135.03" height="137.09" viewBox="0 0 135.03 137.09">
  <metadata><?xpacket begin="﻿" id="W5M0MpCehiHzreSzNTczkc9d"?>
<x:xmpmeta xmlns:x="adobe:ns:meta/" x:xmptk="Adobe XMP Core 5.6-c142 79.160924, 2017/07/13-01:06:39        ">
   <rdf:RDF xmlns:rdf="http://www.w3.org/1999/02/22-rdf-syntax-ns#">
      <rdf:Description rdf:about=""
            xmlns:xmp="http://ns.adobe.com/xap/1.0/">
         <xmp:CreatorTool>Adobe Photoshop CC 2019 (Windows)</xmp:CreatorTool>
      </rdf:Description>
   </rdf:RDF>
</x:xmpmeta>
                                                                                                    
                                                                                                    
                                                                                                    
                                                                                                    
                                                                                                    
                                                                                                    
                                                                                                    
                                                                                                    
                                                                                                    
                                                                                                    
                                                                                                    
                                                                                                    
                                                                                                    
                                                                                                    
                                                                                                    
                                                                                                    
                                                                                                    
                                                                                                    
                                                                                                    
                                                                                                    
                           
<?xpacket end="w"?></metadata>
<defs>
    <style>
      .cls-1 {
        fill: #445d6a;
      }

      .cls-1, .cls-2 {
        fill-rule: evenodd;
      }

      .cls-2 {
        fill: #e76224;
      }
    </style>
  </defs>
  <path class="cls-1" d="M959.2,2828.48c0,14.61-.124,29.22.062,43.83a10.663,10.663,0,0,1-10.819,10.89c-8.224-.02-16.449.03-24.673-0.02-6.45-.03-10.933-4.56-10.935-10.96q-0.014-43.98,0-87.97c0-5.68,3.781-9.49,9.422-9.5q13.86-.015,27.719.01c5.566,0.01,9.218,3.69,9.221,9.28Q959.207,2806.255,959.2,2828.48Zm-42.983,4.16q0,19.56,0,39.11c0,5.25,2.823,8.06,8.107,8.06q11.649,0.015,23.3.01c5.572,0,8.42-2.84,8.423-8.46q0.018-39.2,0-78.38c0-2-.016-2.01-2.067-2.01q-17.817,0-35.634.01c-2.123,0-2.131.01-2.132,2.09Q916.213,2812.855,916.215,2832.64Zm19.936-45.04h4.569c4.568,0,9.137.01,13.7-.01,0.636,0,1.465.14,1.56-.79,0.446-4.42-.636-8.55-6.379-8.86-2.53-.14-5.075-0.03-7.613-0.03-6.294,0-12.588-.02-18.882.01-3.823.02-6.256,1.75-6.784,4.82-0.162.94-.022,1.92-0.126,2.88-0.167,1.53.44,2.03,1.981,2.01C924.171,2787.55,930.161,2787.6,936.151,2787.6Zm-0.183,15.23H923.341a6.924,6.924,0,0,1-1.513-.1,1.63,1.63,0,0,1,.022-3.18,7.679,7.679,0,0,1,1.664-.1h25.71c1.706,0.03,2.582.6,2.575,1.7s-0.881,1.67-2.6,1.67Q942.585,2802.835,935.968,2802.83ZM936,2865.84q-6.313.015-12.627,0a6.914,6.914,0,0,1-1.512-.09,1.63,1.63,0,0,1-.036-3.18,5.6,5.6,0,0,1,1.36-.1q13.006-.015,26.014,0c0.254,0,.508,0,0.761.02a1.656,1.656,0,0,1,1.817,1.65,1.616,1.616,0,0,1-1.781,1.67c-1.164.06-2.332,0.03-3.5,0.03H936Zm0.24-50.57c4.258,0,8.516-.01,12.774,0a8.878,8.878,0,0,1,1.365.06,1.474,1.474,0,0,1,1.388,1.38,1.6,1.6,0,0,1-1.038,1.69,4.439,4.439,0,0,1-1.947.23q-12.621.015-25.242,0.01c-2.067-.01-3.018-0.57-3.008-1.77,0.009-1.12.892-1.61,2.935-1.61h12.773v0.01Zm-0.085,34.76c-4.258,0-8.516.01-12.773,0a8.875,8.875,0,0,1-1.366-.05,1.6,1.6,0,0,1-.2-3.16,7.267,7.267,0,0,1,1.807-.16q12.546-.015,25.091,0a9.847,9.847,0,0,1,1.215.04,1.718,1.718,0,0,1,1.827,1.82c-0.05,1.13-.9,1.49-1.917,1.5q-3.346.015-6.691,0.01h-7Zm0-15.8H923.216a12.42,12.42,0,0,1-1.366-.05,1.529,1.529,0,0,1-.132-3,7.68,7.68,0,0,1,1.664-.11H949.1c0.405,0,.813,0,1.216.03a1.436,1.436,0,0,1,1.443,1.48,1.413,1.413,0,0,1-1.456,1.6c-1.215.06-2.434,0.04-3.652,0.04-3.5.01-7,0-10.5,0v0.01Z" transform="translate(-912.844 -2774.75)"/>
  <path id="Shape_6_copy" data-name="Shape 6 copy" class="cls-2" d="M972.833,2828.32q0-22.065,0-44.13c0-5.74,3.657-9.41,9.4-9.42q13.78,0,27.562.02c5.55,0.01,9.34,3.82,9.35,9.41q0.03,14.76.01,29.52a7,7,0,0,1-.05,1.21,1.606,1.606,0,0,1-1.61,1.53,1.5,1.5,0,0,1-1.54-1.41,9.133,9.133,0,0,1-.12-1.81c-0.01-6.75,0-13.5-.01-20.24,0-1.99-.07-2.05-2.06-2.05-11.87,0-23.752.03-35.629-.02-1.567,0-1.977.53-1.975,2.03q0.054,39.87.032,79.74a6.894,6.894,0,0,0,6.972,7.1q12.865,0.09,25.73.01a6.9,6.9,0,0,0,6.92-7.02c0.03-7.86.01-15.72,0.02-23.59,0-2.12.54-3.07,1.71-3.02,1.1,0.04,1.61.95,1.61,2.98,0,7.76.01,15.52-.01,23.28a10.42,10.42,0,0,1-10.4,10.69q-12.705.2-25.426,0.02c-6.27-.09-10.489-4.58-10.49-10.85Q972.83,2850.31,972.833,2828.32Zm23.007-40.71v0.01c6.03,0,12.06.01,18.1-.01,0.71,0,1.56.22,1.85-.85,1.32-4.89-1.51-8.84-6.53-8.87-8.87-.05-17.741-0.02-26.612.02a6.545,6.545,0,0,0-4.4,1.39,5.771,5.771,0,0,0-2.072,4.84c0.076,3.85-.354,3.46,3.391,3.46C984.992,2787.62,990.416,2787.61,995.84,2787.61Zm6.58,34.23q9.945,0.39,19.89.77c0.99,0.04,2,.07,2.46,1.14s-0.36,1.68-1,2.33c-0.78.79-1.54,1.61-2.39,2.33-0.88.76-.71,1.25,0.16,1.86,3.38,2.33,6.74,4.7,10.11,7.05,1.8,1.26,1.94,1.93.76,3.75-0.88,1.37-1.75,2.73-2.65,4.09-1.08,1.65-1.87,1.83-3.49.75-3.46-2.3-6.94-4.59-10.35-6.97-1.01-.71-1.38-0.44-1.7.56-0.36,1.11-.77,2.2-1.15,3.31a1.877,1.877,0,0,1-1.63,1.58,1.989,1.989,0,0,1-1.85-1.36q-3.42-6.87-6.84-13.76c-0.76-1.54-1.52-3.09-2.25-4.65C999.716,2822.95,1000.59,2821.66,1002.42,2821.84Zm8.48,16.47a6.722,6.722,0,0,0,1.21-2.41c0.85-2.05,1.61-2.32,3.41-1.11,3.49,2.35,6.98,4.69,10.44,7.08,0.95,0.65,1.61.88,2.32-.32,0.63-1.07,1.27-1.84-.24-2.84-3.5-2.32-6.91-4.79-10.33-7.23-1.89-1.35-1.9-2.04-.25-3.73a5.6,5.6,0,0,0,1.72-2.1c-3.7.15-7.17-.3-10.65-0.29-1.26,0-3.12-.61-3.61.19-0.6.99,0.79,2.31,1.35,3.47C1007.73,2832.07,1009.28,2835.08,1010.9,2838.31Zm-14.441-35.49q-6.309,0-12.619-.01a8.451,8.451,0,0,1-1.512-.09,1.571,1.571,0,0,1-1.414-1.55,1.537,1.537,0,0,1,1.358-1.59,6.152,6.152,0,0,1,1.358-.11q12.923,0,25.85.01a6.267,6.267,0,0,1,1.06.04,1.6,1.6,0,0,1,1.54,1.59,1.577,1.577,0,0,1-1.49,1.64,8.746,8.746,0,0,1-1.36.05c-4.26.01-8.51,0-12.771,0v0.02Zm0,63.01H983.84a7.619,7.619,0,0,1-1.512-.1,1.582,1.582,0,0,1-.056-3.14,6.152,6.152,0,0,1,1.358-.11q12.924,0,25.85.01a7.516,7.516,0,0,1,1.06.04,1.612,1.612,0,0,1,1.54,1.6,1.562,1.562,0,0,1-1.49,1.63,7.659,7.659,0,0,1-1.36.06H996.459v0.01Zm-0.037-15.81H983.935c-0.457,0-.915.01-1.37-0.03a1.626,1.626,0,0,1-.108-3.25,9.6,9.6,0,0,1,1.518-.07q12.487,0,24.975.01c2.19,0,3.29.59,3.1,1.79-0.3,1.89-1.87,1.52-3.14,1.53-4.16.02-8.33,0-12.488,0v0.02Zm-1.935-12.6a3.077,3.077,0,0,1,.616-1.69c0.936-1.45,1.9-2.89,2.844-4.33a1.634,1.634,0,0,1,2.463-.68,1.579,1.579,0,0,1,.32,2.41c-1.089,1.71-2.185,3.42-3.327,5.1a1.567,1.567,0,0,1-2.009.62A1.358,1.358,0,0,1,994.487,2837.42Zm12.223-19.25a6.541,6.541,0,0,1,.39-0.89c1.03-1.63,2.07-3.24,3.13-4.85,0.57-.86,1.32-1.32,2.31-0.72a1.545,1.545,0,0,1,.48,2.37q-1.635,2.655-3.38,5.23a1.452,1.452,0,0,1-1.86.61A1.615,1.615,0,0,1,1006.71,2818.17Zm-17.475,12.89a1.634,1.634,0,0,1-1.664-1.26,1.394,1.394,0,0,1,.79-1.78c2.129-.81,4.283-1.57,6.457-2.25a1.4,1.4,0,0,1,1.739.88,1.383,1.383,0,0,1-.454,1.9A44.913,44.913,0,0,1,989.235,2831.06Zm14.665-14.95a1.621,1.621,0,0,1-1.59,1.84c-1.14.06-1.58-.79-1.69-1.77q-0.33-2.94-.54-5.89a1.558,1.558,0,0,1,1.41-1.84,1.514,1.514,0,0,1,1.79,1.45C1003.52,2811.91,1003.69,2813.93,1003.9,2816.11Zm-8.493,5.19a2.422,2.422,0,0,1-1.319-.49c-1.407-.9-2.816-1.8-4.217-2.72-0.941-.61-1.57-1.41-0.888-2.53,0.7-1.14,1.66-.91,2.621-0.27,1.52,1.01,3.066,1.98,4.573,3A1.654,1.654,0,0,1,995.407,2821.3Z" transform="translate(-912.844 -2774.75)"/>
</svg>
