<svg xmlns="http://www.w3.org/2000/svg" width="135.03" height="137.09" viewBox="0 0 135.03 137.09">
  <metadata><?xpacket begin="﻿" id="W5M0MpCehiHzreSzNTczkc9d"?>
<x:xmpmeta xmlns:x="adobe:ns:meta/" x:xmptk="Adobe XMP Core 5.6-c142 79.160924, 2017/07/13-01:06:39        ">
   <rdf:RDF xmlns:rdf="http://www.w3.org/1999/02/22-rdf-syntax-ns#">
      <rdf:Description rdf:about=""
            xmlns:xmp="http://ns.adobe.com/xap/1.0/">
         <xmp:CreatorTool>Adobe Photoshop CC 2019 (Windows)</xmp:CreatorTool>
      </rdf:Description>
   </rdf:RDF>
</x:xmpmeta>
                                                                                                    
                                                                                                    
                                                                                                    
                                                                                                    
                                                                                                    
                                                                                                    
                                                                                                    
                                                                                                    
                                                                                                    
                                                                                                    
                                                                                                    
                                                                                                    
                                                                                                    
                                                                                                    
                                                                                                    
                                                                                                    
                                                                                                    
                                                                                                    
                                                                                                    
                                                                                                    
                           
<?xpacket end="w"?></metadata>
<defs>
    <style>
      .cls-1 {
        fill: #445d6a;
      }

      .cls-1, .cls-3 {
        fill-rule: evenodd;
      }

      .cls-2 {
        fill: #fff;
      }

      .cls-3 {
        fill: #e76224;
      }
    </style>
  </defs>
  <path id="Forma_1" data-name="Forma 1" class="cls-1" d="M1576.37,2763a12.373,12.373,0,0,0-12.28,13.5h-0.06v110.15a11.348,11.348,0,0,0,11.32,11.35H1665V2763h-88.63Zm-7.85,123.65V2785.5a11.184,11.184,0,0,0,6.73,2.25v105.74A6.834,6.834,0,0,1,1568.52,2886.65Zm92,6.85h-80.78V2787.75h6.73v56.7a3.332,3.332,0,0,0,2.47,3.25,3.571,3.571,0,0,0,.91.13,0.3,0.3,0,0,0,.1-0.02,1.544,1.544,0,0,0,.3-0.04,3.072,3.072,0,0,0,.67-0.14,2.88,2.88,0,0,0,.31-0.13,3.582,3.582,0,0,0,.59-0.36c0.08-.06.16-0.11,0.24-0.18a3.1,3.1,0,0,0,.65-0.78l9.47-15.81,9.46,15.82a3.289,3.289,0,0,0,3.48,1.54c0.1-.02.2,0,0.3-0.03a3.343,3.343,0,0,0,2.46-3.25v-56.7h42.63V2893.5h0.01Zm-46.81-109.16-0.01.01-0.3.62v0.09l-0.23.52,0.23,0.34v54.46l-11.22-18.75-11.22,18.75v-54.35l3.63-7.28h21.91Zm5.56-1.09,4.49-9h-31.94l-4.49,9h-10.48a8.2,8.2,0,0,1-8.29-7.07,7.894,7.894,0,0,1,7.81-8.68h84.15v2.25H1649.3a2.25,2.25,0,0,0,0,4.5h11.22v2.25h-8.98a2.25,2.25,0,0,0,0,4.5h8.98v2.25h-41.25Z" transform="translate(-1564.03 -2763)"/>
  <rect class="cls-2" x="75.97" y="65" width="51" height="52"/>
  <path id="Forma_1_copy_4" data-name="Forma 1 copy 4" class="cls-3" d="M1586.47,2787.75v56.7a3.332,3.332,0,0,0,2.47,3.25,3.571,3.571,0,0,0,.91.13,0.3,0.3,0,0,0,.1-0.02,1.544,1.544,0,0,0,.3-0.04,3.072,3.072,0,0,0,.67-0.14,2.88,2.88,0,0,0,.31-0.13,3.582,3.582,0,0,0,.59-0.36c0.08-.06.16-0.11,0.24-0.18a3.1,3.1,0,0,0,.65-0.78l9.47-15.81,9.46,15.82a3.289,3.289,0,0,0,3.48,1.54c0.1-.02.2,0,0.3-0.03a3.343,3.343,0,0,0,2.46-3.25v-56.7h-31.41Zm27.24-3.41-0.01.01-0.3.62v0.09l-0.23.52,0.23,0.34v54.46l-11.22-18.75-11.22,18.75v-54.35l3.63-7.28h21.91Zm-26.38-1.09,4.49-9h31.94l-4.49,9h-31.94Z" transform="translate(-1564.03 -2763)"/>
  <path class="cls-3" d="M1587,2783l-1,5h5l2-5h-6Z" transform="translate(-1564.03 -2763)"/>
  <path id="Shape_2_copy" data-name="Shape 2 copy" class="cls-3" d="M1609,2783l5,5h4l2-5h-11Z" transform="translate(-1564.03 -2763)"/>
  <path class="cls-3" d="M1682.52,2851.1a1.2,1.2,0,0,0-2.39.17c0.03,0.4.04,0.82,0.04,1.23a17.281,17.281,0,1,1-6.96-13.71,1.218,1.218,0,0,0,1.69-.23,1.173,1.173,0,0,0-.24-1.66,19.443,19.443,0,1,0,7.92,15.6C1682.58,2852.03,1682.56,2851.56,1682.52,2851.1Zm4.11-15.42a4.739,4.739,0,0,0-6.64,0l-17.32,17.07-6.14-6.05a4.726,4.726,0,0,0-6.63,0,4.57,4.57,0,0,0,0,6.53l10.57,10.43a3.164,3.164,0,0,0,4.4,0l21.76-21.45A4.57,4.57,0,0,0,1686.63,2835.68Zm-1.7,4.86-21.76,21.44a0.719,0.719,0,0,1-1,0l-10.57-10.42a2.239,2.239,0,0,1,0-3.19,2.279,2.279,0,0,1,1.61-.66,2.3,2.3,0,0,1,1.62.66l6.32,6.23a2.173,2.173,0,0,0,3.04,0l17.5-17.25a2.318,2.318,0,0,1,3.24,0A2.239,2.239,0,0,1,1684.93,2840.54Z" transform="translate(-1564.03 -2763)"/>
</svg>
