<svg xmlns="http://www.w3.org/2000/svg" width="135.03" height="137.09" viewBox="0 0 135.03 137.09">
  <metadata><?xpacket begin="﻿" id="W5M0MpCehiHzreSzNTczkc9d"?>
<x:xmpmeta xmlns:x="adobe:ns:meta/" x:xmptk="Adobe XMP Core 5.6-c142 79.160924, 2017/07/13-01:06:39        ">
   <rdf:RDF xmlns:rdf="http://www.w3.org/1999/02/22-rdf-syntax-ns#">
      <rdf:Description rdf:about=""
            xmlns:xmp="http://ns.adobe.com/xap/1.0/">
         <xmp:CreatorTool>Adobe Photoshop CC 2018 (Windows)</xmp:CreatorTool>
      </rdf:Description>
   </rdf:RDF>
</x:xmpmeta>
                                                                                                    
                                                                                                    
                                                                                                    
                                                                                                    
                                                                                                    
                                                                                                    
                                                                                                    
                                                                                                    
                                                                                                    
                                                                                                    
                                                                                                    
                                                                                                    
                                                                                                    
                                                                                                    
                                                                                                    
                                                                                                    
                                                                                                    
                                                                                                    
                                                                                                    
                                                                                                    
                           
<?xpacket end="w"?></metadata>
<defs>
    <style>
      .cls-1 {
        fill: #445d6a;
      }

      .cls-1, .cls-2 {
        fill-rule: evenodd;
      }

      .cls-2 {
        fill: #e76224;
      }
    </style>
  </defs>
  <path id="Forma_1_copy_2" data-name="Forma 1 copy 2" class="cls-1" d="M102.024,5.173A14.194,14.194,0,0,0,91.043,0H14.22A14.193,14.193,0,1,0,20.073,27.13a1.931,1.931,0,1,0-1.594-3.519,10.33,10.33,0,1,1,6.092-9.42V61.464a1.934,1.934,0,0,0,3.869,0V14.192A14.141,14.141,0,0,0,23.955,3.861H91.043a10.332,10.332,0,0,1,7.994,3.768A1.933,1.933,0,0,0,102.024,5.173ZM42.587,119.726a3.92,3.92,0,1,1,0-7.84,1.931,1.931,0,1,0,0-3.861,7.782,7.782,0,1,0,0,15.563A1.931,1.931,0,1,0,42.587,119.726ZM16.8,18.112a3.92,3.92,0,1,1,0-7.839,1.931,1.931,0,1,0,0-3.861,7.782,7.782,0,1,0,0,15.563A1.931,1.931,0,1,0,16.8,18.112ZM103.329,64.3a1.933,1.933,0,0,0-1.934,1.931V96.791a1.935,1.935,0,0,0,3.869,0V66.227A1.933,1.933,0,0,0,103.329,64.3Zm12.286,37.317H38.791A14.191,14.191,0,0,0,28.44,106.09v-36.9a1.934,1.934,0,0,0-3.869,0v46.618A14.224,14.224,0,0,0,38.791,130h76.824A14.194,14.194,0,1,0,115.615,101.613ZM38.791,126.137a9.986,9.986,0,0,1-1.057-.053,10.357,10.357,0,0,1-9.281-9.747q-0.014-.264-0.013-0.531A10.351,10.351,0,1,1,38.791,126.137Zm76.824,0H48.526a14.142,14.142,0,0,0,0-20.663h67.089A10.332,10.332,0,1,1,115.615,126.138ZM80.756,20.468H41.942a1.931,1.931,0,1,0,0,3.862H80.756A1.931,1.931,0,1,0,80.756,20.468ZM71.343,32.824h-29.4a1.931,1.931,0,1,0,0,3.861h29.4A1.931,1.931,0,1,0,71.343,32.824ZM64.766,45.4H41.942a1.931,1.931,0,1,0,0,3.861H64.766A1.931,1.931,0,1,0,64.766,45.4ZM61.284,57.976H41.942a1.931,1.931,0,1,0,0,3.862H61.284A1.931,1.931,0,1,0,61.284,57.976ZM54.321,70.332H41.942a1.931,1.931,0,1,0,0,3.861H54.321A1.931,1.931,0,1,0,54.321,70.332Z"/>
  <path id="Forma_1_copy_2-2" data-name="Forma 1 copy 2" class="cls-2" d="M113.124,22.149L67.492,67.695c0.409-1.3.814-2.661,1.239-4.094,3.527-11.914,8.358-28.231,28.213-44.085,7.467-5.962,14.509-8.445,20.93-7.376a9.742,9.742,0,0,1,8.015,8c0.742,4.443-.231,9.214-2.89,14.182a1.933,1.933,0,0,0,3.412,1.82c3.07-5.737,4.179-11.334,3.294-16.637a13.608,13.608,0,0,0-11.2-11.174c-7.55-1.255-15.62,1.493-23.982,8.17C73.722,33.112,68.692,50.1,65.02,62.506c-1.8,6.071-3.217,10.867-5.963,13.607l-9.51,9.493a1.932,1.932,0,0,0,2.736,2.73l9.511-9.493c2.747-2.741,7.551-4.158,13.633-5.951,12.429-3.665,29.451-8.686,46.094-29.451a1.933,1.933,0,0,0-3.021-2.412C102.614,60.847,86.266,65.668,74.33,69.188c-1.436.424-2.8,0.828-4.1,1.237l45.631-45.546a1.932,1.932,0,1,0-2.735-2.73"/>
</svg>
