<svg xmlns="http://www.w3.org/2000/svg" width="135.03" height="137.09" viewBox="0 0 135.03 137.09">
  <metadata><?xpacket begin="﻿" id="W5M0MpCehiHzreSzNTczkc9d"?>
<x:xmpmeta xmlns:x="adobe:ns:meta/" x:xmptk="Adobe XMP Core 5.6-c142 79.160924, 2017/07/13-01:06:39        ">
   <rdf:RDF xmlns:rdf="http://www.w3.org/1999/02/22-rdf-syntax-ns#">
      <rdf:Description rdf:about=""
            xmlns:xmp="http://ns.adobe.com/xap/1.0/">
         <xmp:CreatorTool>Adobe Photoshop CC 2019 (Windows)</xmp:CreatorTool>
      </rdf:Description>
   </rdf:RDF>
</x:xmpmeta>
                                                                                                    
                                                                                                    
                                                                                                    
                                                                                                    
                                                                                                    
                                                                                                    
                                                                                                    
                                                                                                    
                                                                                                    
                                                                                                    
                                                                                                    
                                                                                                    
                                                                                                    
                                                                                                    
                                                                                                    
                                                                                                    
                                                                                                    
                                                                                                    
                                                                                                    
                                                                                                    
                           
<?xpacket end="w"?></metadata>
<defs>
    <style>
      .cls-1 {
        fill: #445d6a;
      }

      .cls-1, .cls-2 {
        fill-rule: evenodd;
      }

      .cls-2 {
        fill: #e76224;
      }
    </style>
  </defs>
  <path id="Forma_1" data-name="Forma 1" class="cls-1" d="M657.353,2882.1m-1.74-99.14H602.607a3.356,3.356,0,1,0,0,6.71h53.006A3.357,3.357,0,1,0,655.613,2782.96Zm0,17.2H602.607a3.352,3.352,0,1,0,0,6.7h53.006A3.352,3.352,0,1,0,655.613,2800.16Zm-36.787,70.04-2.612-1.26a9.245,9.245,0,0,1-1.838-1.21H592.062a2.737,2.737,0,0,1-2.771-2.69V2769.8a2.73,2.73,0,0,1,2.771-2.69h74.262a2.732,2.732,0,0,1,2.77,2.69v49.12a9.575,9.575,0,0,1,3.451,1.55,9.183,9.183,0,0,1,3.8,6.09l0.11-56.75a9.994,9.994,0,0,0-10.128-9.85H592.062a10.019,10.019,0,0,0-10.142,9.85v95.24a10.016,10.016,0,0,0,10.142,9.85H614Z" transform="translate(-581.906 -2759.97)"/>
  <path id="Forma_1_copy" data-name="Forma 1 copy" class="cls-2" d="M616.922,2844.35l2.943,5.52a3.67,3.67,0,0,1,0,3.48l-2.943,5.53a3.821,3.821,0,0,0-.247,2.99,3.98,3.98,0,0,0,2.011,2.28l5.72,2.77a3.826,3.826,0,0,1,2.128,2.84l0.944,6.12a3.862,3.862,0,0,0,1.608,2.56,4.1,4.1,0,0,0,3.006.7l6.31-1a3.91,3.91,0,0,1,3.418,1.07l4.488,4.42a4.1,4.1,0,0,0,5.712,0l4.488-4.42a3.935,3.935,0,0,1,3.424-1.07l6.32,0.99a4.1,4.1,0,0,0,3-.71,3.823,3.823,0,0,0,1.6-2.55l0.955-6.13a3.823,3.823,0,0,1,2.129-2.84l5.711-2.77a3.883,3.883,0,0,0,2.014-2.27,3.813,3.813,0,0,0-.253-3l-2.94-5.52a3.706,3.706,0,0,1,0-3.49l2.94-5.51a3.834,3.834,0,0,0,.253-3,3.913,3.913,0,0,0-2.014-2.27l-5.711-2.77a3.806,3.806,0,0,1-2.129-2.84l-0.955-6.13a3.823,3.823,0,0,0-1.6-2.55,4.046,4.046,0,0,0-3-.7l-6.32,1.02a3.99,3.99,0,0,1-3.424-1.08l-4.488-4.43a4.1,4.1,0,0,0-2.854-1.15,4.2,4.2,0,0,0-2.858,1.15l-4.488,4.43a3.945,3.945,0,0,1-3.418,1.08l-6.31-1.01a4.028,4.028,0,0,0-3.006.71,3.842,3.842,0,0,0-1.608,2.55l-0.944,6.12a3.826,3.826,0,0,1-2.128,2.84l-5.72,2.78a3.935,3.935,0,0,0-2.011,2.27m32.486,33.29c-13.428,0-24.344-10.59-24.344-23.62s10.921-23.63,24.344-23.63,24.344,10.61,24.344,23.63S662.592,2874.65,649.161,2874.65Zm0.005-43.84c-11.467,0-20.805,9.05-20.805,20.18s9.344,20.19,20.805,20.19c11.479,0,20.8-9.05,20.8-20.19S660.645,2830.81,649.166,2830.81Zm36.251,52.74L674.1,2872.56l-0.576,3.7a6.471,6.471,0,0,1-2.694,4.29,6.8,6.8,0,0,1-5.009,1.17l-6.326-1.01a1.25,1.25,0,0,0-1.064.35l-1.081,1.04,14.786,14.35a2.207,2.207,0,0,0,2.162.53,2.131,2.131,0,0,0,1.481-1.62l1.334-6.96,7.2-1.31a2.1,2.1,0,0,0,1.651-1.44A2.041,2.041,0,0,0,685.417,2883.55Zm-46.384-2.86-6.515,1.03a6.838,6.838,0,0,1-5.034-1.18,6.489,6.489,0,0,1-2.678-4.29l-0.573-3.69-11.316,10.99a2.07,2.07,0,0,0-.541,2.1,2.159,2.159,0,0,0,1.66,1.43l7.19,1.3,1.347,6.98a2.128,2.128,0,0,0,1.479,1.62,2.206,2.206,0,0,0,2.153-.52l14.781-14.36-1.075-1.06A1.266,1.266,0,0,0,639.033,2880.69Z" transform="translate(-581.906 -2759.97)"/>
</svg>
