<svg id="Group_5_copy" data-name="Group 5 copy" xmlns="http://www.w3.org/2000/svg" width="135.03" height="137.09" viewBox="0 0 135.03 137.09">
  <metadata><?xpacket begin="﻿" id="W5M0MpCehiHzreSzNTczkc9d"?>
<x:xmpmeta xmlns:x="adobe:ns:meta/" x:xmptk="Adobe XMP Core 5.6-c142 79.160924, 2017/07/13-01:06:39        ">
   <rdf:RDF xmlns:rdf="http://www.w3.org/1999/02/22-rdf-syntax-ns#">
      <rdf:Description rdf:about=""
            xmlns:xmp="http://ns.adobe.com/xap/1.0/">
         <xmp:CreatorTool>Adobe Photoshop CC 2019 (Windows)</xmp:CreatorTool>
      </rdf:Description>
   </rdf:RDF>
</x:xmpmeta>
                                                                                                    
                                                                                                    
                                                                                                    
                                                                                                    
                                                                                                    
                                                                                                    
                                                                                                    
                                                                                                    
                                                                                                    
                                                                                                    
                                                                                                    
                                                                                                    
                                                                                                    
                                                                                                    
                                                                                                    
                                                                                                    
                                                                                                    
                                                                                                    
                                                                                                    
                                                                                                    
                           
<?xpacket end="w"?></metadata>
<defs>
    <style>
      .cls-1 {
        fill: #445d6a;
      }

      .cls-1, .cls-2 {
        fill-rule: evenodd;
      }

      .cls-2 {
        fill: #e76224;
      }
    </style>
  </defs>
  <path id="Forma_1_copy_3" data-name="Forma 1 copy 3" class="cls-1" d="M1348.17,2784.35l-82.68-17.52a6.526,6.526,0,0,0-7.71,5.02l-1.57,10.1,95.4,20.21,1.57-10.1A6.519,6.519,0,0,0,1348.17,2784.35Zm-34.77,19.95a6.58,6.58,0,0,0-8.08-4.57l-15.69,4.36-37-7.84-4.07,19.25-25.43,7.06a6.584,6.584,0,0,0-4.57,8.08l14.33,51.68a6.58,6.58,0,0,0,8.08,4.57l82.19-22.83a6.584,6.584,0,0,0,4.57-8.08l-2.46-8.87,9.22,1.95a6.52,6.52,0,0,0,7.7-5.02l5.83-27.58-33.2-7.03Zm9.49,26.27,2.03-9.62a2.683,2.683,0,0,1,3.17-2.06l9.61,2.03a2.683,2.683,0,0,1,2.06,3.18l-2.03,9.61a2.673,2.673,0,0,1-3.17,2.06l-9.6-2.03A2.684,2.684,0,0,1,1322.89,2830.57Zm-98.33-2.85,22.75-6.32,53.66-14.91,5.78-1.6a1.148,1.148,0,0,1,.31-0.04,1.23,1.23,0,0,1,1.18.88l0.68,2.45,2.12,7.66-84.52,23.48-2.8-10.11A1.222,1.222,0,0,1,1224.56,2827.72Zm98.01,29.69a1.174,1.174,0,0,1-.12.92,1.145,1.145,0,0,1-.72.57l-82.19,22.83a1.115,1.115,0,0,1-.31.05,1.24,1.24,0,0,1-1.18-.89l-8.36-30.15,84.53-23.47,5.15,18.59Zm-69.75,2.06a2.673,2.673,0,0,0-3.29-1.86l-9.6,2.66a2.684,2.684,0,0,0-1.86,3.3l2.66,9.61a2.685,2.685,0,0,0,3.29,1.86l9.6-2.67a2.669,2.669,0,0,0,1.86-3.29Z" transform="translate(-1218.31 -2766.69)"/>
  <path id="Forma_1_copy_3-2" data-name="Forma 1 copy 3" class="cls-2" d="M1248.56,2815.5l-25.43,7.06a6.584,6.584,0,0,0-4.57,8.08l14.33,51.68a6.58,6.58,0,0,0,8.08,4.57l82.19-22.83a6.584,6.584,0,0,0,4.57-8.08l-2.46-8.87-10.45-37.68-1.42-5.13a6.58,6.58,0,0,0-8.08-4.57l-15.69,4.36m-65.07,23.63,22.75-6.32,53.66-14.91,5.78-1.6a1.148,1.148,0,0,1,.31-0.04,1.23,1.23,0,0,1,1.18.88l0.68,2.45,2.12,7.66-84.52,23.48-2.8-10.11A1.222,1.222,0,0,1,1224.56,2827.72Zm98.01,29.69a1.174,1.174,0,0,1-.12.92,1.145,1.145,0,0,1-.72.57l-82.19,22.83a1.115,1.115,0,0,1-.31.05,1.24,1.24,0,0,1-1.18-.89l-8.36-30.15,84.53-23.47,5.15,18.59Zm-69.75,2.06a2.673,2.673,0,0,0-3.29-1.86l-9.6,2.66a2.684,2.684,0,0,0-1.86,3.3l2.66,9.61a2.685,2.685,0,0,0,3.29,1.86l9.6-2.67a2.669,2.669,0,0,0,1.86-3.29Z" transform="translate(-1218.31 -2766.69)"/>
</svg>
