<svg xmlns="http://www.w3.org/2000/svg" width="117" height="117" viewBox="0 0 117 117">
  <defs>
    <style>
      .cls-1 {
        fill: #e76224;
        fill-rule: evenodd;
      }
    </style>
  </defs>
  <path class="cls-1" d="M607.142,1215.26a58.478,58.478,0,1,0-65.777,85.72A58.8,58.8,0,0,0,556.6,1303,58.5,58.5,0,0,0,607.142,1215.26Zm-0.041,42.8a52.367,52.367,0,1,1-50.686-65.97,52.641,52.641,0,0,1,13.643,1.81A52.388,52.388,0,0,1,607.1,1258.06Zm-22.544-19.08-37.6-21.71a6.373,6.373,0,0,0-9.559,5.52v43.42a6.351,6.351,0,0,0,9.559,5.51l37.6-21.7A6.375,6.375,0,0,0,584.557,1238.98Zm-3.045,5.76-37.6,21.71a0.283,0.283,0,0,1-.424-0.24v-43.42a0.249,0.249,0,0,1,.141-0.24,0.334,0.334,0,0,1,.145-0.05,0.233,0.233,0,0,1,.138.05l37.6,21.7a0.271,0.271,0,0,1,.142.25A0.241,0.241,0,0,1,581.512,1244.74Zm10.935-28.02a45.881,45.881,0,0,0-29.867-17.24,3.043,3.043,0,1,0-.825,6.03,39.758,39.758,0,0,1,25.876,14.94A3.046,3.046,0,0,0,592.447,1216.72Z" transform="translate(-498 -1186)"/>
</svg>
