<svg xmlns="http://www.w3.org/2000/svg" width="117" height="117" viewBox="0 0 117 117">
  <metadata><?xpacket begin="﻿" id="W5M0MpCehiHzreSzNTczkc9d"?>
<x:xmpmeta xmlns:x="adobe:ns:meta/" x:xmptk="Adobe XMP Core 5.6-c142 79.160924, 2017/07/13-01:06:39        ">
   <rdf:RDF xmlns:rdf="http://www.w3.org/1999/02/22-rdf-syntax-ns#">
      <rdf:Description rdf:about=""
            xmlns:xmp="http://ns.adobe.com/xap/1.0/">
         <xmp:CreatorTool>Adobe Photoshop CC 2018 (Windows)</xmp:CreatorTool>
      </rdf:Description>
   </rdf:RDF>
</x:xmpmeta>
                                                                                                    
                                                                                                    
                                                                                                    
                                                                                                    
                                                                                                    
                                                                                                    
                                                                                                    
                                                                                                    
                                                                                                    
                                                                                                    
                                                                                                    
                                                                                                    
                                                                                                    
                                                                                                    
                                                                                                    
                                                                                                    
                                                                                                    
                                                                                                    
                                                                                                    
                                                                                                    
                           
<?xpacket end="w"?></metadata>
<defs>
    <style>
      .cls-1 {
        fill: #fff;
        fill-rule: evenodd;
      }
    </style>
  </defs>
  <path class="cls-1" d="M109.142,29.26A58.477,58.477,0,0,0,2.015,43.364a58.475,58.475,0,0,0,41.349,71.617A58.8,58.8,0,0,0,58.6,117,58.5,58.5,0,0,0,109.142,29.26Zm-0.041,42.8a52.387,52.387,0,0,1-95.97,12.634,52.423,52.423,0,0,1,45.284-78.6A52.689,52.689,0,0,1,72.058,7.9,52.386,52.386,0,0,1,109.1,72.057ZM86.557,52.98l-37.6-21.707A6.373,6.373,0,0,0,39.4,36.791V80.205a6.359,6.359,0,0,0,9.559,5.519l37.6-21.707A6.372,6.372,0,0,0,86.557,52.98Zm-3.045,5.763L45.914,80.45a0.282,0.282,0,0,1-.424-0.244V36.791a0.253,0.253,0,0,1,.141-0.245,0.287,0.287,0,0,1,.145-0.043,0.268,0.268,0,0,1,.138.043l37.6,21.707A0.283,0.283,0,0,1,83.512,58.743ZM94.447,30.72A45.921,45.921,0,0,0,64.579,13.475a3.045,3.045,0,1,0-.824,6.034A39.783,39.783,0,0,1,89.632,34.447,3.045,3.045,0,0,0,94.447,30.72Z"/>
</svg>
