<svg xmlns="http://www.w3.org/2000/svg" width="32" height="29" viewBox="0 0 32 29">
  <metadata><?xpacket begin="﻿" id="W5M0MpCehiHzreSzNTczkc9d"?>
<x:xmpmeta xmlns:x="adobe:ns:meta/" x:xmptk="Adobe XMP Core 5.6-c142 79.160924, 2017/07/13-01:06:39        ">
   <rdf:RDF xmlns:rdf="http://www.w3.org/1999/02/22-rdf-syntax-ns#">
      <rdf:Description rdf:about=""
            xmlns:xmp="http://ns.adobe.com/xap/1.0/">
         <xmp:CreatorTool>Adobe Photoshop CC 2019 (Windows)</xmp:CreatorTool>
      </rdf:Description>
   </rdf:RDF>
</x:xmpmeta>
                                                                                                    
                                                                                                    
                                                                                                    
                                                                                                    
                                                                                                    
                                                                                                    
                                                                                                    
                                                                                                    
                                                                                                    
                                                                                                    
                                                                                                    
                                                                                                    
                                                                                                    
                                                                                                    
                                                                                                    
                                                                                                    
                                                                                                    
                                                                                                    
                                                                                                    
                                                                                                    
                           
<?xpacket end="w"?></metadata>
<defs>
    <style>
      .cls-1 {
        fill: #e76224;
        fill-rule: evenodd;
      }
    </style>
  </defs>
  <path class="cls-1" d="M1000.11,3800.46a0.857,0.857,0,1,0-1.709.13c0.021,0.3.032,0.6,0.032,0.91a12.367,12.367,0,1,1-12.362-12.74,11.986,11.986,0,0,1,7.414,2.55,0.84,0.84,0,0,0,1.2-.18,0.893,0.893,0,0,0-.17-1.23,13.654,13.654,0,0,0-8.441-2.9,14.507,14.507,0,1,0,14.069,14.5C1000.14,3801.15,1000.13,3800.8,1000.11,3800.46Zm2.91-11.47a3.265,3.265,0,0,0-4.713,0l-12.319,12.69-4.367-4.5a3.27,3.27,0,0,0-4.717,0,3.526,3.526,0,0,0,0,4.87l7.521,7.75a2.181,2.181,0,0,0,3.126,0l15.469-15.95A3.516,3.516,0,0,0,1003.02,3788.99Zm-1.21,3.62-15.468,15.94a0.493,0.493,0,0,1-.708,0l-7.521-7.75a1.714,1.714,0,0,1,0-2.37,1.593,1.593,0,0,1,2.3,0l4.492,4.63a1.507,1.507,0,0,0,2.168,0l12.444-12.82a1.576,1.576,0,0,1,2.294,0A1.7,1.7,0,0,1,1001.81,3792.61Z" transform="translate(-972 -3787)"/>
</svg>
